<!DOCTYPE svg PUBLIC "-//W3C//DTD SVG 1.1//EN" "http://www.w3.org/Graphics/SVG/1.1/DTD/svg11.dtd">
<!-- Uploaded to: SVG Find, www.svgfind.com, Transformed by: SVG Find Mixer Tools -->
<svg fill="#fafafa" width="800px" height="800px" version="1.1" viewBox="144 144 512 512" xmlns="http://www.w3.org/2000/svg" stroke="#fafafa">
<g id="SVGRepo_bgCarrier" stroke-width="0"/>
<g id="SVGRepo_tracerCarrier" stroke-linecap="round" stroke-linejoin="round"/>
<g id="SVGRepo_iconCarrier"> <path d="m605.8 362.68c-4.832-1.9961-10.203-2.2617-15.203-0.75-5.0039 1.5117-9.3281 4.707-12.242 9.0469l-0.40234 0.58984c-1.293 2.0156-2.4844 4.0938-3.5625 6.2305v-124.49c-0.007812-7.3359-2.9258-14.367-8.1133-19.555s-12.223-8.1055-19.559-8.1133h-1.1992c-4.9414-0.003906-9.7891 1.3203-14.043 3.8359-0.13672-8.8633-4.4766-17.133-11.691-22.281-7.2109-5.1523-16.441-6.5703-24.871-3.8242-8.4258 2.7461-15.047 9.332-17.844 17.742-4.6836-3.125-10.191-4.7852-15.82-4.7617-6.8047 0.007812-13.367 2.5195-18.441 7.0586-5.0703 4.5352-8.2969 10.777-9.0625 17.539-4.1914-2.4062-8.9414-3.6641-13.777-3.6484-7.6367 0.007812-14.91 3.2852-19.973 9.0039-5.1992-5.7695-12.613-9.0469-20.379-9.0039-4.6914-0.003907-9.3047 1.2305-13.363 3.582-0.81641-6.8125-4.1133-13.082-9.2656-17.609-5.1523-4.5234-11.793-6.9922-18.652-6.9219-5.4961-0.003907-10.871 1.6367-15.43 4.7109-2.8164-8.3867-9.4414-14.941-17.859-17.668-8.418-2.7266-17.629-1.3047-24.828 3.8398-7.2031 5.1445-11.535 13.395-11.688 22.242-4.25-2.5156-9.1016-3.8398-14.043-3.8359h-1.1992c-7.3359 0.007813-14.367 2.9258-19.555 8.1133s-8.1055 12.219-8.1133 19.555v124.48c-1.0781-2.1211-2.2656-4.1875-3.5547-6.1875l-0.40234-0.60937v-0.003907c-2.9141-4.3438-7.2422-7.543-12.246-9.0586-5.0078-1.5156-10.387-1.2461-15.219 0.75391-5.0625 1.8828-9.3203 5.457-12.047 10.121-2.7227 4.6641-3.75 10.129-2.8984 15.465l7.9219 53.391c4.2422 28.16 19.695 53.406 42.844 69.992l37.133 26.469v53.039c0 3.7656 3.0547 6.8203 6.8203 6.8203 3.7656 0 6.8203-3.0547 6.8203-6.8203v-56.539c0-2.207-1.0664-4.2734-2.8633-5.5508l-40-28.535c-20.148-14.43-33.598-36.398-37.293-60.902l-7.8711-53.391h-0.003906c-0.72266-4.6875 1.9883-9.2305 6.457-10.824 4.1953-1.7969 9.0781-0.23828 11.453 3.6602 4.7148 7.1836 10.527 21.766 15.281 34.914 0.023438 0.074218 0.050781 0.15234 0.078125 0.22656 4.9805 13.777 8.7773 25.977 8.8555 26.223h0.003906c1 3.1211 4.0625 5.1055 7.3203 4.7422 1.25-0.14844 30.691-3.2266 43.031 23.293h-0.003906c1.5898 3.4141 5.6445 4.8984 9.0586 3.3086 3.418-1.5859 4.8984-5.6406 3.3125-9.0547-11.66-25.043-36.102-31.391-51.316-31.41-1.5234-4.7344-4.0234-12.262-7.0078-20.547v-157.44h0.003907c0.003906-7.75 6.2891-14.035 14.039-14.039h1.2031c7.75 0.003906 14.035 6.2891 14.039 14.039v102.05c-0.88672 31.684 14.594 93.066 124.66 156.46v79.352c0 3.7656 3.0547 6.8164 6.8203 6.8164s6.8164-3.0508 6.8164-6.8164v-79.379c110.07-63.359 125.55-124.74 124.66-156.46v-102.04c0.007813-7.7539 6.2891-14.035 14.043-14.043h1.1992c7.7539 0.007813 14.039 6.2891 14.043 14.043v157.44c-2.9531 8.2852-5.4805 15.824-7.0078 20.547-15.223 0-39.656 6.375-51.316 31.41h0.003906c-0.76562 1.6367-0.84375 3.5156-0.22266 5.2109 0.62109 1.6992 1.8906 3.082 3.5312 3.8438 3.418 1.5898 7.4727 0.10547 9.0586-3.3086 12.348-26.566 41.789-23.438 43-23.293 3.2812 0.42188 6.3867-1.582 7.3516-4.7422 0.13672-0.47266 14.516-46.574 24.441-61.715 3.8477-5.6367 9.5547-3.9375 11.219-3.3047v-0.003906c4.4688 1.5938 7.1797 6.1328 6.4531 10.824l-7.8711 53.391c-3.6953 24.504-17.141 46.469-37.281 60.902l-40 28.535c-1.7969 1.2812-2.8633 3.3477-2.8633 5.5508v56.539c0 3.7656 3.0508 6.8203 6.8164 6.8203s6.8203-3.0547 6.8203-6.8203v-53.039l37.145-26.488c23.148-16.586 38.602-41.832 42.844-69.992l7.9219-53.391c0.83203-5.3438-0.21484-10.812-2.9609-15.469s-7.0234-8.2188-12.102-10.078zm-116.46-132.99c0-7.8789 6.3867-14.266 14.266-14.266 7.8789 0 14.27 6.3867 14.27 14.266v82.086c-7-10.715-16.801-19.305-28.34-24.844l-0.1875-0.089844v-57.152zm-42.117 14.34c0-7.8828 6.3867-14.27 14.27-14.27 7.8789 0 14.266 6.3867 14.266 14.27v37.941c-9.3281-2.3555-19.043-2.7539-28.535-1.1797zm-26.812 6.8867c7.2734 0.003906 13.168 5.9023 13.176 13.176v20.191c-9.6172 3.5-18.641 8.4492-26.758 14.684v-34.855c0.03125-3.5508 1.4805-6.9453 4.0273-9.4219 2.5469-2.4766 5.9805-3.8281 9.5352-3.7539zm-40.395 0c7.2734 0.011719 13.164 5.9023 13.176 13.176v34.875c-8.1172-6.2344-17.141-11.184-26.754-14.684v-20.172c0.027344-3.5508 1.4766-6.9453 4.0234-9.4219 2.5508-2.4766 5.9844-3.8281 9.5352-3.7539zm-41.277-20.93c7.7422 0.015624 14.016 6.2969 14.02 14.043v36.762c-9.4922-1.5742-19.207-1.1758-28.535 1.1797v-37.941c0.027343-3.8008 1.582-7.4258 4.3125-10.066 2.7266-2.6406 6.4062-4.0742 10.203-3.9766zm-56.602-0.29688c0-7.8789 6.3867-14.266 14.27-14.266 7.8789 0 14.266 6.3867 14.266 14.266v57.145l-0.1875 0.089844v-0.003907c-11.531 5.543-21.324 14.133-28.316 24.848v-82.078zm117.86 270.32c-99.602-57.309-117.25-110.91-117.88-140.46v-0.35547-3.5898-0.60938c0.98438-24.602 14.316-46.453 34.086-55.723 7.8203-3.7461 16.375-5.7031 25.043-5.7266 30.18 0 52.496 23.871 53.668 25.152v-0.003906c1.293 1.4141 3.1211 2.2188 5.0391 2.2148 1.9102 0 3.7344-0.80469 5.0273-2.2148 1.4844-1.6055 36.605-39.164 78.719-19.426 19.77 9.2695 33.141 31.145 34.086 55.723v0.60938 3.5898 0.35547c-0.53906 29.547-18.195 83.152-117.79 140.46z"/> </g>
</svg>